#N canvas 832 223 759 478 12;
#X obj 330 210 +~;
#X obj 463 323 outlet~;
#X obj 200 42 inlet;
#X obj 300 42 inlet;
#X obj 400 43 inlet;
#X obj 500 43 inlet;
#X obj 240 170 +~;
#X obj 440 170 +~;
#X obj 200 119 osc~;
#X obj 200 74 mtof~;
#X obj 300 120 osc~;
#X obj 300 75 mtof~;
#X obj 400 120 osc~;
#X obj 400 75 mtof~;
#X obj 500 120 osc~;
#X obj 500 75 mtof~;
#X obj 573 42 inlet;
#X obj 673 42 inlet;
#X obj 613 169 +~;
#X obj 573 119 osc~;
#X obj 573 74 mtof~;
#X obj 673 119 osc~;
#X obj 673 74 mtof~;
#X obj 464 253 +~;
#X obj 463 293 /~ 6;
#X connect 0 0 23 0;
#X connect 2 0 9 0;
#X connect 3 0 11 0;
#X connect 4 0 13 0;
#X connect 5 0 15 0;
#X connect 6 0 0 0;
#X connect 7 0 0 1;
#X connect 8 0 6 0;
#X connect 9 0 8 0;
#X connect 10 0 6 1;
#X connect 11 0 10 0;
#X connect 12 0 7 0;
#X connect 13 0 12 0;
#X connect 14 0 7 1;
#X connect 15 0 14 0;
#X connect 16 0 20 0;
#X connect 17 0 22 0;
#X connect 18 0 23 1;
#X connect 19 0 18 0;
#X connect 20 0 19 0;
#X connect 21 0 18 1;
#X connect 22 0 21 0;
#X connect 23 0 24 0;
#X connect 24 0 1 0;
