#N canvas 639 233 662 414 12;
#X obj 221 239 cnv 15 400 150 empty empty AMPLITUDE 20 12 0 14 -261682
-66577 0;
#X obj 14 9 cnv 15 200 380 empty empty SYNTH 20 12 0 14 -261234 -66577
0;
#X obj 35 357 dac~;
#X obj 34 213 *~;
#X obj 237 269 hsl 128 15 0 100 0 0 empty empty empty -2 -8 0 10 -262144
-1 -1 0 1;
#X obj 34 270 clip~ -1 1;
#X floatatom 234 345 5 0 0 0 - - -;
#X floatatom 234 288 5 0 0 0 - - -;
#X obj 234 315 dbtorms;
#X obj 222 9 cnv 15 400 200 empty empty CHORD_GENERATOR 20 12 0 14
-4032 -66577 0;
#X obj 269 134 pyext my_pd_objects.simple_object;
#X msg 269 108 reload;
#X msg 411 109 load 1 2;
#X msg 345 108 search;
#X text 371 264 amplitude (dB) of Synth;
#X obj 34 160 mixer;
#X floatatom 34 56 5 0 0 0 - pitch_note_1 -;
#X floatatom 269 170 5 0 0 0 - - pitch_note_1;
#X floatatom 326 170 5 0 0 0 - - pitch_note_2;
#X floatatom 383 170 5 0 0 0 - - pitch_note_3;
#X floatatom 440 169 5 0 0 0 - - pitch_note_4;
#X floatatom 73 56 5 0 0 0 - pitch_note_2 -;
#X floatatom 112 56 5 0 0 0 - pitch_note_3 -;
#X floatatom 151 56 5 0 0 0 - pitch_note_4 -;
#X obj 488 14 hsl 128 15 0 100 0 0 empty empty empty -2 -8 0 10 -262144
-1 -1 2100 1;
#X floatatom 485 83 5 0 0 0 - - -;
#X msg 485 108 complexity \$1;
#X obj 485 47 int;
#X connect 3 0 5 0;
#X connect 4 0 7 0;
#X connect 5 0 2 0;
#X connect 5 0 2 1;
#X connect 6 0 3 1;
#X connect 7 0 8 0;
#X connect 8 0 6 0;
#X connect 10 0 17 0;
#X connect 10 1 18 0;
#X connect 10 2 19 0;
#X connect 10 3 20 0;
#X connect 11 0 10 0;
#X connect 12 0 10 2;
#X connect 13 0 10 1;
#X connect 15 0 3 0;
#X connect 16 0 15 0;
#X connect 21 0 15 1;
#X connect 22 0 15 2;
#X connect 23 0 15 3;
#X connect 24 0 27 0;
#X connect 25 0 26 0;
#X connect 26 0 10 3;
#X connect 27 0 25 0;
