#N canvas 1145 212 645 650 12;
#X obj 221 239 cnv 15 400 150 empty empty AMPLITUDE 20 12 0 14 -261682
-66577 0;
#X obj 14 9 cnv 15 200 380 empty empty SYNTH 20 12 0 14 -261234 -66577
0;
#X obj 35 357 dac~;
#X obj 34 213 *~;
#X obj 237 269 hsl 128 15 0 100 0 0 empty empty empty -2 -8 0 10 -262144
-1 -1 12700 1;
#X obj 34 270 clip~ -1 1;
#X floatatom 234 345 5 0 0 0 - - -;
#X floatatom 234 288 5 0 0 0 - - -;
#X obj 234 315 dbtorms;
#X obj 222 9 cnv 15 400 200 empty empty CHORD_GENERATOR 20 12 0 14
-4032 -66577 0;
#X obj 269 134 pyext my_pd_objects.simple_object;
#X msg 269 108 reload;
#X msg 411 109 load 1 2;
#X msg 345 108 search;
#X text 371 264 amplitude (dB) of Synth;
#X floatatom 167 133 5 0 0 0 - pitch_note_1 -;
#X floatatom 269 170 5 0 0 0 - - pitch_note_1;
#X floatatom 309 170 5 0 0 0 - - pitch_note_2;
#X floatatom 349 170 5 0 0 0 - - pitch_note_3;
#X floatatom 389 170 5 0 0 0 - - pitch_note_4;
#X floatatom 167 110 5 0 0 0 - pitch_note_2 -;
#X floatatom 167 87 5 0 0 0 - pitch_note_3 -;
#X floatatom 167 64 5 0 0 0 - pitch_note_4 -;
#X obj 488 14 hsl 128 15 0 10 0 0 empty empty empty -2 -8 0 10 -262144
-1 -1 1700 1;
#X floatatom 485 73 5 0 0 0 - - -;
#X msg 485 108 complexity \$1;
#X obj 485 47 int;
#X obj 14 394 cnv 15 607 240 empty empty Metronome 20 12 0 14 -159808
-66577 0;
#X obj 37 477 taptempo 32;
#X obj 126 491 bpm_ms;
#X obj 37 545 s ms;
#X obj 129 436 hsl 128 15 0 240 0 0 BPM empty BPM -2 -8 0 10 -262144
-1 -1 5500 1;
#X floatatom 126 456 5 0 0 0 - BPM -;
#X msg 89 545 \; ms \$1;
#X floatatom 37 511 5 0 0 0 - - -;
#X obj 284 518 i;
#X obj 330 519 + 1;
#X floatatom 284 556 5 0 0 0 - - -;
#X msg 311 446 0;
#X obj 284 583 % 8;
#X floatatom 284 611 5 0 0 0 - - bang_bang;
#X text 325 581 modulo operator;
#X msg 338 402 stop;
#X msg 284 402 bang;
#X obj 284 477 metro 500;
#X text 341 425 resets counter everytime we start;
#X text 392 401 START/STOP metronome;
#X obj 442 455 r ms;
#X text 385 481 500ms = quarter notes at 120 BPM;
#X floatatom 386 456 5 0 0 0 - - -;
#X floatatom 345 62 5 0 0 0 - bang_bang -;
#X obj 34 160 chord_mixer;
#X floatatom 167 41 5 0 0 0 - pitch_note_5 -;
#X floatatom 167 18 5 0 0 0 - pitch_note_6 -;
#X floatatom 429 170 5 0 0 0 - - pitch_note_5;
#X floatatom 469 170 5 0 0 0 - - pitch_note_6;
#X text 507 28 COMPLEXITY LEVEL;
#X connect 3 0 5 0;
#X connect 4 0 7 0;
#X connect 5 0 2 0;
#X connect 5 0 2 1;
#X connect 6 0 3 1;
#X connect 7 0 8 0;
#X connect 8 0 6 0;
#X connect 10 0 16 0;
#X connect 10 1 17 0;
#X connect 10 2 18 0;
#X connect 10 3 19 0;
#X connect 10 4 54 0;
#X connect 10 5 55 0;
#X connect 11 0 10 0;
#X connect 12 0 10 2;
#X connect 13 0 10 1;
#X connect 15 0 51 0;
#X connect 20 0 51 1;
#X connect 21 0 51 2;
#X connect 22 0 51 3;
#X connect 23 0 26 0;
#X connect 24 0 25 0;
#X connect 25 0 10 3;
#X connect 26 0 24 0;
#X connect 28 0 34 0;
#X connect 29 0 34 0;
#X connect 32 0 29 0;
#X connect 34 0 30 0;
#X connect 35 0 36 0;
#X connect 35 0 37 0;
#X connect 36 0 35 1;
#X connect 37 0 39 0;
#X connect 38 0 35 1;
#X connect 39 0 40 0;
#X connect 42 0 44 0;
#X connect 43 0 38 0;
#X connect 43 0 44 0;
#X connect 44 0 35 0;
#X connect 47 0 49 0;
#X connect 49 0 44 1;
#X connect 50 0 13 0;
#X connect 51 0 3 0;
#X connect 52 0 51 4;
#X connect 53 0 51 5;
