#N canvas 862 247 759 478 12;
#X obj 330 210 +~;
#X obj 330 281 outlet~;
#X obj 200 42 inlet;
#X obj 300 42 inlet;
#X obj 400 43 inlet;
#X obj 500 43 inlet;
#X obj 240 170 +~;
#X obj 440 170 +~;
#X obj 330 251 /~ 4;
#X obj 200 119 osc~;
#X obj 200 74 mtof~;
#X obj 300 120 osc~;
#X obj 300 75 mtof~;
#X obj 400 120 osc~;
#X obj 400 75 mtof~;
#X obj 500 120 osc~;
#X obj 500 75 mtof~;
#X connect 0 0 8 0;
#X connect 2 0 10 0;
#X connect 3 0 12 0;
#X connect 4 0 14 0;
#X connect 5 0 16 0;
#X connect 6 0 0 0;
#X connect 7 0 0 1;
#X connect 8 0 1 0;
#X connect 9 0 6 0;
#X connect 10 0 9 0;
#X connect 11 0 6 1;
#X connect 12 0 11 0;
#X connect 13 0 7 0;
#X connect 14 0 13 0;
#X connect 15 0 7 1;
#X connect 16 0 15 0;
