#N canvas 101 654 819 300 12;
#X obj 61 60 pyext my_pd_objects.simple_object;
#X msg 61 34 reload;
#X msg 289 28 load 1 2;
#X msg 175 31 search;
#X obj 4 175 print A;
#X obj 68 174 print B;
#X obj 134 174 print C;
#X obj 197 174 print D;
#X connect 0 0 4 0;
#X connect 0 1 5 0;
#X connect 0 2 6 0;
#X connect 0 3 7 0;
#X connect 1 0 0 0;
#X connect 2 0 0 2;
#X connect 3 0 0 1;
